<svg
  width="121"
  height="36"
  viewBox="0 0 121 36"
  fill="none"
  xmlns="http://www.w3.org/2000/svg"
  style="cursor: pointer"
>
  <path
    d="M6.92104 0.189969C5.02501 0.571444 3.32921 1.6738 2.24666 3.13546C1.15159 4.59087 0.563384 6.29073 0.251134 8.0014C-0.056111 9.71832 -0.0310777 11.458 0.0627852 13.1692C0.2624 16.6201 1.0327 20.0256 2.34616 23.2661C3.01008 24.8864 3.79853 26.4561 4.73716 27.9621C5.6883 29.4635 6.80214 30.8729 8.02862 32.1924C9.27387 33.4881 10.6067 34.7843 12.3964 35.5859C12.8469 35.7906 13.3413 35.9156 13.8544 35.9844C14.3925 36.0356 14.9119 35.956 15.3875 35.8247C16.3449 35.558 17.1896 35.1032 17.9843 34.608C19.0857 33.915 20.0994 33.1134 21.0505 32.2777C21.4573 31.9076 21.864 31.538 22.2582 31.1634C22.3271 31.1008 22.3896 31.0321 22.4647 30.9644C23.6912 29.7762 24.8363 28.5135 25.9377 27.2344C28.2592 24.5112 30.393 21.6743 32.3203 18.718C34.2414 15.7622 36.0686 12.7434 37.439 9.51366C38.1399 7.91612 38.5216 6.06275 38.046 4.30091C37.8145 3.42483 37.3451 2.56694 36.5567 1.94669C35.7745 1.32757 34.692 1.0598 33.6845 1.11666C32.6645 1.16782 31.7509 1.49813 30.8749 1.84493C29.9925 2.21447 29.1478 2.65733 28.3844 3.18662C26.8388 4.22644 25.5247 5.53461 24.429 6.94396C22.2332 9.79224 20.7439 12.9987 19.5794 16.262C18.4537 19.5196 17.3586 22.8801 17.4956 26.3873C17.5401 27.2571 17.6527 28.1213 17.9468 28.9689C18.0469 29.2526 18.1783 29.5374 18.3285 29.8041C17.4956 30.5494 16.6452 31.2373 15.8192 31.7711C15.2248 32.1469 14.1422 32.6069 14.1422 32.6069C14.1422 32.6069 14.0296 32.5847 13.9608 32.5449C13.579 32.4255 12.9908 32.0554 12.4277 31.6182C11.8639 31.1856 11.2888 30.6625 10.7325 30.094C10.1806 29.5374 9.593 28.9001 9.11743 28.3037C8.61057 27.7119 8.15377 27.0644 7.70323 26.4163C6.83343 25.0911 6.03872 23.6988 5.36917 22.2428C4.03068 19.3382 3.17278 16.2114 2.83487 13.0271C2.71598 12.2374 2.67906 11.4188 2.62837 10.6393C2.59708 9.87183 2.62274 9.10489 2.6972 8.35445C2.86616 6.85925 3.27915 5.41464 4.03632 4.24975C4.78722 3.08429 5.88291 2.20308 7.34655 1.78181C8.80455 1.33894 10.3189 1.45777 11.7956 2.11725C13.2605 2.7773 14.5734 3.93139 15.6878 5.22193C16.8204 6.51758 17.8154 7.97923 18.5976 9.51366L18.6045 9.5364C18.6477 9.61657 18.7603 9.66204 18.8541 9.63362C18.9605 9.59325 19.0106 9.49092 18.973 9.40052C18.3535 7.76262 17.515 6.20545 16.4888 4.74948C15.4438 3.31681 14.1735 1.95862 12.5278 1.03194C11.7081 0.565752 10.7826 0.229769 9.82453 0.0876395C9.44908 0.0279451 9.06987 9.24494e-05 8.69067 9.24494e-05C8.0962 9.24494e-05 7.50174 0.0683057 6.92104 0.189969M19.8491 27.3827C19.8172 27.0303 19.8053 26.6664 19.8172 26.2963C19.8491 24.8131 20.1682 23.2661 20.625 21.7311C20.8565 20.9523 21.1194 20.1961 21.426 19.4116C21.7195 18.6333 21.9829 17.8424 22.3208 17.0806L22.7895 15.9322L23.3158 14.8123C23.6412 14.0561 24.0604 13.3512 24.429 12.6291C25.2431 11.2249 26.1317 9.88376 27.1329 8.70693C27.997 7.69099 28.9707 6.74271 30.0983 5.96441C30.9706 5.36178 32.682 4.04055 33.8678 4.56245C34.6932 4.92573 34.6475 5.81887 34.4592 6.51018C34.3985 6.73191 34.329 6.94339 34.2727 7.12872C33.6851 9.0577 32.6733 10.8434 31.6383 12.6013C30.7929 14.0391 29.8918 15.4666 28.9413 16.8765C27.0327 19.6788 25.0116 22.4418 22.8402 25.0513C21.9203 26.1491 20.9754 27.2179 19.9805 28.2179C19.9242 27.9734 19.8741 27.6841 19.8491 27.3827Z"
    fill="url(#paint0_linear_20_4)"
  ></path>
  <path
    d="M43.9282 22.58L43.9206 22.5948C42.8315 24.0201 41.3952 25.1736 39.8861 26.2068C38.3687 27.2247 36.7632 28.1455 35.1172 28.9668C33.463 29.7816 31.753 30.5276 30.0494 31.0706C29.8403 31.1393 29.6306 31.1991 29.4367 31.2518C29.227 31.3057 29.0572 31.3353 28.8234 31.3803C28.3875 31.4709 27.9516 31.5313 27.5164 31.584C26.6452 31.6894 25.7899 31.7048 24.958 31.645C24.0951 31.5769 23.2715 31.388 22.5695 31.0783C22.4973 31.1541 22.4326 31.2216 22.3604 31.2897C21.9644 31.6823 21.5532 32.0672 21.1421 32.4515C22.3034 33.0093 23.6269 33.2657 24.9099 33.2965C25.878 33.319 26.8549 33.2355 27.7983 33.0691C28.7429 32.9039 29.7028 32.7002 30.598 32.3455C32.3815 31.6598 34.0681 30.8071 35.7065 29.8793C37.3442 28.9449 38.9174 27.9264 40.3942 26.7723C41.8634 25.6188 43.2503 24.3369 44.2678 22.7831C44.3236 22.7002 44.2995 22.5948 44.2108 22.5338C44.1772 22.5113 44.1373 22.5001 44.0974 22.5001C44.0334 22.5001 43.9688 22.5285 43.9282 22.58"
    fill="url(#paint1_linear_20_4)"
  ></path>
  <path
    d="M59.7318 11V3.63636H62.4284C62.9509 3.63636 63.3836 3.72266 63.7264 3.89524C64.0692 4.06543 64.3256 4.29674 64.4958 4.58918C64.666 4.87922 64.7511 5.20641 64.7511 5.57076C64.7511 5.87757 64.6948 6.13645 64.5821 6.34739C64.4695 6.55593 64.3184 6.72372 64.1291 6.85076C63.9421 6.97541 63.736 7.06649 63.5107 7.12402V7.19593C63.7551 7.20792 63.9936 7.28702 64.2262 7.43324C64.4611 7.57706 64.6552 7.782 64.8086 8.04807C64.962 8.31414 65.0387 8.63774 65.0387 9.01887C65.0387 9.3952 64.9501 9.73318 64.7727 10.0328C64.5977 10.33 64.3268 10.5661 63.9601 10.7411C63.5933 10.9137 63.1247 11 62.5542 11H59.7318ZM60.8428 10.0472H62.4464C62.9785 10.0472 63.3596 9.94411 63.5898 9.73797C63.8199 9.53183 63.9349 9.27415 63.9349 8.96493C63.9349 8.73242 63.8762 8.51909 63.7587 8.32493C63.6413 8.13077 63.4735 7.97616 63.2554 7.86111C63.0396 7.74605 62.7832 7.68852 62.4859 7.68852H60.8428V10.0472ZM60.8428 6.822H62.3313C62.5806 6.822 62.8047 6.77406 63.0037 6.67818C63.205 6.5823 63.3644 6.44806 63.4819 6.27548C63.6017 6.1005 63.6617 5.89435 63.6617 5.65705C63.6617 5.35263 63.555 5.09735 63.3417 4.8912C63.1283 4.68506 62.8011 4.58199 62.3601 4.58199H60.8428V6.822ZM69.7687 8.70965V5.47727H70.8473V11H69.7902V10.0436H69.7327C69.6057 10.3384 69.4019 10.5841 69.1215 10.7807C68.8434 10.9748 68.497 11.0719 68.0824 11.0719C67.7276 11.0719 67.4136 10.994 67.1403 10.8382C66.8695 10.68 66.6561 10.4463 66.5003 10.1371C66.3469 9.82786 66.2702 9.44553 66.2702 8.9901V5.47727H67.3453V8.86066C67.3453 9.23699 67.4495 9.53662 67.6581 9.75954C67.8666 9.98247 68.1375 10.0939 68.4707 10.0939C68.672 10.0939 68.8722 10.0436 69.0711 9.94292C69.2725 9.84224 69.4391 9.69003 69.5709 9.48628C69.7051 9.28254 69.7711 9.02366 69.7687 8.70965ZM72.2918 11V5.47727H73.3669V11H72.2918ZM72.8347 4.62513C72.6478 4.62513 72.4872 4.56281 72.3529 4.43817C72.2211 4.31112 72.1552 4.16011 72.1552 3.98513C72.1552 3.80775 72.2211 3.65674 72.3529 3.53209C72.4872 3.40505 72.6478 3.34153 72.8347 3.34153C73.0217 3.34153 73.1811 3.40505 73.313 3.53209C73.4472 3.65674 73.5143 3.80775 73.5143 3.98513C73.5143 4.16011 73.4472 4.31112 73.313 4.43817C73.1811 4.56281 73.0217 4.62513 72.8347 4.62513ZM76.8806 11.1079C76.4348 11.1079 76.0369 10.994 75.6869 10.7663C75.3393 10.5362 75.0661 10.209 74.8671 9.78471C74.6706 9.35804 74.5723 8.84628 74.5723 8.24942C74.5723 7.65257 74.6718 7.142 74.8707 6.71773C75.0721 6.29346 75.3477 5.96866 75.6977 5.74334C76.0476 5.51802 76.4444 5.40536 76.8878 5.40536C77.2306 5.40536 77.5062 5.46289 77.7148 5.57795C77.9257 5.69061 78.0887 5.82244 78.2038 5.97346C78.3212 6.12447 78.4123 6.2575 78.477 6.37256H78.5417V3.63636H79.6168V11H78.5669V10.1407H78.477C78.4123 10.2581 78.3188 10.3924 78.1966 10.5434C78.0767 10.6944 77.9113 10.8262 77.7004 10.9389C77.4895 11.0515 77.2162 11.1079 76.8806 11.1079ZM77.1179 10.191C77.4271 10.191 77.6884 10.1095 77.9017 9.94651C78.1175 9.78112 78.2805 9.5522 78.3907 9.25977C78.5034 8.96733 78.5597 8.62695 78.5597 8.23864C78.5597 7.85511 78.5046 7.51953 78.3943 7.23189C78.2841 6.94425 78.1223 6.72013 77.9089 6.55953C77.6956 6.39893 77.4319 6.31863 77.1179 6.31863C76.7943 6.31863 76.5247 6.40252 76.3089 6.57031C76.0932 6.7381 75.9302 6.96702 75.8199 7.25706C75.7121 7.5471 75.6581 7.87429 75.6581 8.23864C75.6581 8.60778 75.7133 8.93976 75.8235 9.2346C75.9338 9.52943 76.0968 9.76314 76.3125 9.93572C76.5306 10.1059 76.7991 10.191 77.1179 10.191ZM82.2263 3.63636V11H81.1512V3.63636H82.2263ZM86.3521 11V5.47727H87.4272V11H86.3521ZM86.8951 4.62513C86.7081 4.62513 86.5475 4.56281 86.4132 4.43817C86.2814 4.31112 86.2155 4.16011 86.2155 3.98513C86.2155 3.80775 86.2814 3.65674 86.4132 3.53209C86.5475 3.40505 86.7081 3.34153 86.8951 3.34153C87.082 3.34153 87.2414 3.40505 87.3733 3.53209C87.5075 3.65674 87.5746 3.80775 87.5746 3.98513C87.5746 4.16011 87.5075 4.31112 87.3733 4.43817C87.2414 4.56281 87.082 4.62513 86.8951 4.62513ZM89.9486 7.72088V11H88.8735V5.47727H89.9054V6.37615H89.9737C90.1008 6.08372 90.2997 5.84881 90.5706 5.67143C90.8438 5.49405 91.1878 5.40536 91.6025 5.40536C91.9788 5.40536 92.3084 5.48446 92.5913 5.64267C92.8741 5.79847 93.0934 6.03098 93.2492 6.3402C93.405 6.64941 93.483 7.03174 93.483 7.48717V11H92.4079V7.61661C92.4079 7.21631 92.3036 6.9035 92.0951 6.67818C91.8865 6.45046 91.6001 6.3366 91.2357 6.3366C90.9865 6.3366 90.7647 6.39054 90.5706 6.4984C90.3788 6.60627 90.2266 6.76447 90.1139 6.97301C90.0037 7.17915 89.9486 7.42844 89.9486 7.72088Z"
    fill="#A9A9A9"
  ></path>
  <path
    d="M60.214 31V17.9091H62.5854V29.0121H68.351V31H60.214ZM72.3908 17.9091L75.2736 22.7031H75.3759L78.2715 17.9091H80.9753L76.9419 24.4545L81.0392 31H78.2907L75.3759 26.2379H75.2736L72.3588 31H69.623L73.7587 24.4545L69.6742 17.9091H72.3908ZM87.2731 31H82.837V17.9091H87.3626C88.6623 17.9091 89.7788 18.1712 90.712 18.6953C91.6495 19.2152 92.3697 19.9631 92.8725 20.9389C93.3754 21.9148 93.6268 23.0824 93.6268 24.4418C93.6268 25.8054 93.3732 26.9773 92.8661 27.9574C92.3633 28.9375 91.6367 29.6896 90.6864 30.2138C89.7404 30.7379 88.6026 31 87.2731 31ZM85.2084 28.9482H87.158C88.07 28.9482 88.8306 28.782 89.44 28.4496C90.0494 28.1129 90.5075 27.6122 90.8143 26.9474C91.1211 26.2784 91.2745 25.4432 91.2745 24.4418C91.2745 23.4403 91.1211 22.6094 90.8143 21.9489C90.5075 21.2841 90.0536 20.7876 89.4528 20.4595C88.8562 20.1271 88.1147 19.9609 87.2283 19.9609H85.2084V28.9482ZM96.858 31H94.3267L98.9354 17.9091H101.863L106.478 31H103.947L100.45 20.5938H100.348L96.858 31ZM96.941 25.8672H103.844V27.772H96.941V25.8672ZM119.284 24.4545C119.284 25.8651 119.02 27.0732 118.492 28.0788C117.968 29.0803 117.252 29.8473 116.344 30.38C115.441 30.9126 114.416 31.179 113.27 31.179C112.123 31.179 111.096 30.9126 110.189 30.38C109.285 29.843 108.569 29.0739 108.041 28.0724C107.517 27.0668 107.255 25.8608 107.255 24.4545C107.255 23.044 107.517 21.8381 108.041 20.8366C108.569 19.831 109.285 19.0618 110.189 18.5291C111.096 17.9964 112.123 17.7301 113.27 17.7301C114.416 17.7301 115.441 17.9964 116.344 18.5291C117.252 19.0618 117.968 19.831 118.492 20.8366C119.02 21.8381 119.284 23.044 119.284 24.4545ZM116.9 24.4545C116.9 23.4616 116.745 22.6243 116.434 21.9425C116.127 21.2564 115.701 20.7386 115.155 20.3892C114.61 20.0355 113.981 19.8587 113.27 19.8587C112.558 19.8587 111.929 20.0355 111.384 20.3892C110.838 20.7386 110.41 21.2564 110.099 21.9425C109.792 22.6243 109.639 23.4616 109.639 24.4545C109.639 25.4474 109.792 26.2869 110.099 26.973C110.41 27.6548 110.838 28.1726 111.384 28.5263C111.929 28.8757 112.558 29.0504 113.27 29.0504C113.981 29.0504 114.61 28.8757 115.155 28.5263C115.701 28.1726 116.127 27.6548 116.434 26.973C116.745 26.2869 116.9 25.4474 116.9 24.4545Z"
    fill="url(#paint2_linear_20_4)"
  ></path>
  <defs>
    <linearGradient id="paint0_linear_20_4" x1="39.7795" y1="18" x2="-1.49753" y2="18" gradientUnits="userSpaceOnUse">
      <stop stop-color="#00FB8C"></stop>
      <stop offset="0.0971267" stop-color="#64CCEB"></stop>
      <stop offset="0.276683" stop-color="#64CCEB"></stop>
      <stop offset="0.319606" stop-color="#64CCEB"></stop>
      <stop offset="0.697546" stop-color="#0F39D9"></stop>
      <stop offset="0.806149" stop-color="#0F39D9"></stop>
      <stop offset="1" stop-color="#64CCEB"></stop>
    </linearGradient>
    <linearGradient
      id="paint1_linear_20_4"
      x1="39.1882"
      y1="31.0061"
      x2="26.7724"
      y2="23.3363"
      gradientUnits="userSpaceOnUse"
    >
      <stop stop-color="#00FB8C"></stop>
      <stop offset="0.0958371" stop-color="#64CCEB"></stop>
      <stop offset="0.477009" stop-color="#64CCEB"></stop>
      <stop offset="0.646695" stop-color="#64CCEB"></stop>
      <stop offset="1" stop-color="#0F39D9"></stop>
    </linearGradient>
    <linearGradient
      id="paint2_linear_20_4"
      x1="123.39"
      y1="24.0001"
      x2="56.4958"
      y2="24.0001"
      gradientUnits="userSpaceOnUse"
    >
      <stop stop-color="#00FB8C"></stop>
      <stop offset="0.0971267" stop-color="#64CCEB"></stop>
      <stop offset="0.276683" stop-color="#64CCEB"></stop>
      <stop offset="0.319606" stop-color="#64CCEB"></stop>
      <stop offset="0.717468" stop-color="#4469F9"></stop>
      <stop offset="1" stop-color="#64CCEB"></stop>
    </linearGradient>
  </defs>
</svg>
